<?xml version="1.0" encoding="UTF-8"?>
<svg width="260px" height="260px" viewBox="0 0 260 260" version="1.1" xmlns="http://www.w3.org/2000/svg" xmlns:xlink="http://www.w3.org/1999/xlink">
    <!-- Generator: Sketch 54.1 (76490) - https://sketchapp.com -->
    <title>Pomodoro</title>
    <desc>Created with Sketch.</desc>
    <g id="Page-1" stroke="none" stroke-width="1" fill="none" fill-rule="evenodd">
        <g id="Pomodoro" transform="translate(-80.000000, -86.000000)">
            <g transform="translate(79.000000, 76.000000)">
                <circle id="Oval" fill="#FF6B6B" cx="131" cy="140" r="130"></circle>
                <path d="M48.9671734,215.379364 C98.5610167,284.188961 139.228954,171.961704 127.283042,157.521506 C115.337131,143.081308 -0.626669974,146.569768 48.9671734,215.379364 Z" id="Path" fill="#E53F3F" transform="translate(83.041194, 194.079058) rotate(-10.000000) translate(-83.041194, -194.079058) "></path>
                <path d="M134.613449,223.89656 C182.729396,295.493197 228.59017,179.841961 216.644258,165.401762 C204.698347,150.961564 86.4975023,152.299923 134.613449,223.89656 Z" id="Path" fill="#E53F3F" transform="translate(170.857514, 202.615779) rotate(-85.000000) translate(-170.857514, -202.615779) "></path>
                <path d="M26.7747717,131.838902 C74.0303098,198.642163 117.509166,85.0881766 105.563254,70.6479783 C93.6173424,56.2077801 -20.4807664,65.0356416 26.7747717,131.838902 Z" id="Path" fill="#E53F3F" transform="translate(61.466792, 108.718189) rotate(60.000000) translate(-61.466792, -108.718189) "></path>
                <path d="M105.110551,83.4012458 C157.63678,153.929636 195.453825,42.8718072 183.507914,28.4316089 C171.562002,13.9914107 52.5843226,12.8728554 105.110551,83.4012458 Z" id="Path" fill="#E53F3F" transform="translate(138.757713, 63.612221) rotate(136.000000) translate(-138.757713, -63.612221) "></path>
                <path d="M167.544844,141.691277 C214.800382,208.494538 260.934013,95.2233984 248.988101,80.7832001 C237.04219,66.3430018 120.289306,74.8880162 167.544844,141.691277 Z" id="Path" fill="#E53F3F" transform="translate(203.618989, 118.706309) rotate(-161.000000) translate(-203.618989, -118.706309) "></path>
                <path d="M194.354717,123.579837 C197.539037,130.448138 183.091977,137.004847 151.013538,143.249963 L170.857514,156.762832 L147.623406,151.216101 C162.742659,175.667114 167.462932,189.055901 161.784225,191.382462 C156.105518,193.709022 147.58598,182.169146 136.225614,156.762832 L128,170.642265 L122.624849,156.762832 C104.809975,178.888518 93.5956486,188.399607 88.9818686,185.296098 C84.3680885,182.192588 92.0199634,169.599994 111.937493,147.518315 L88.9818686,143.249963 L108.600269,134.592676 C79.4993984,123.918434 65.9361603,115.293605 67.9105547,108.718189 C69.8849491,102.142772 85.8588568,105.472146 115.832278,118.706309 L108.600269,99.0817637 L122.624849,114.687356 C125.781563,84.024236 130.315151,69.6165174 136.225614,71.4642 C142.136076,73.3118825 144.048316,89.0592524 141.962335,118.706309 C151.41509,112.047562 156.141467,108.718189 156.141467,108.718189 C156.141467,108.718189 154.432157,114.877975 151.013538,127.197548 C176.723337,117.917439 191.170397,116.711536 194.354717,123.579837 Z" id="Path-2" fill="#FF8B62"></path>
                <path d="M161.642949,232.273362 C169.857514,232.273362 164.835696,216.334047 161.642949,216.334047 C158.450203,216.334047 153.428385,232.273362 161.642949,232.273362 Z" id="Path-3" fill="#FF8B62" transform="translate(161.642949, 224.303705) rotate(-13.000000) translate(-161.642949, -224.303705) "></path>
                <path d="M175.027622,228.011282 C183.242186,228.011282 178.220369,212.071968 175.027622,212.071968 C171.834875,212.071968 166.813058,228.011282 175.027622,228.011282 Z" id="Path-3" fill="#FF8B62" transform="translate(175.027622, 220.041625) rotate(-26.000000) translate(-175.027622, -220.041625) "></path>
                <path d="M186.027622,218.011282 C194.242186,218.011282 189.220369,202.071968 186.027622,202.071968 C182.834875,202.071968 177.813058,218.011282 186.027622,218.011282 Z" id="Path-3" fill="#FF8B62" transform="translate(186.027622, 210.041625) rotate(-38.000000) translate(-186.027622, -210.041625) "></path>
                <path d="M195.027622,206.011282 C203.242186,206.011282 198.220369,190.071968 195.027622,190.071968 C191.834875,190.071968 186.813058,206.011282 195.027622,206.011282 Z" id="Path-3" fill="#FF8B62" transform="translate(195.027622, 198.041625) rotate(-51.000000) translate(-195.027622, -198.041625) "></path>
                <path d="M147.027622,232.011282 C155.242186,232.011282 150.220369,216.071968 147.027622,216.071968 C143.834875,216.071968 138.813058,232.011282 147.027622,232.011282 Z" id="Path-3" fill="#FF8B62" transform="translate(147.027622, 224.041625) rotate(-2.000000) translate(-147.027622, -224.041625) "></path>
                <path d="M229.459885,136.843445 C237.674449,136.843445 232.652631,120.904131 229.459885,120.904131 C226.267138,120.904131 221.24532,136.843445 229.459885,136.843445 Z" id="Path-3" fill="#FF8B62" transform="translate(229.459885, 128.873788) rotate(-89.000000) translate(-229.459885, -128.873788) "></path>
                <path d="M227.58678,122.922013 C235.801344,122.922013 230.779526,106.982699 227.58678,106.982699 C224.394033,106.982699 219.372215,122.922013 227.58678,122.922013 Z" id="Path-3" fill="#FF8B62" transform="translate(227.586780, 114.952356) rotate(-102.000000) translate(-227.586780, -114.952356) "></path>
                <path d="M219.648832,110.352646 C227.863396,110.352646 222.841579,94.4133318 219.648832,94.4133318 C216.456085,94.4133318 211.434268,110.352646 219.648832,110.352646 Z" id="Path-3" fill="#FF8B62" transform="translate(219.648832, 102.382989) rotate(-114.000000) translate(-219.648832, -102.382989) "></path>
                <path d="M209.393973,99.4055984 C217.608537,99.4055984 212.586719,83.4662839 209.393973,83.4662839 C206.201226,83.4662839 201.179408,99.4055984 209.393973,99.4055984 Z" id="Path-3" fill="#FF8B62" transform="translate(209.393973, 91.435941) rotate(-127.000000) translate(-209.393973, -91.435941) "></path>
                <path d="M226.663862,151.191223 C234.878426,151.191223 229.856608,135.251909 226.663862,135.251909 C223.471115,135.251909 218.449297,151.191223 226.663862,151.191223 Z" id="Path-3" fill="#FF8B62" transform="translate(226.663862, 143.221566) rotate(-78.000000) translate(-226.663862, -143.221566) "></path>
                <path d="M58.0543973,198.291211 C66.2689616,198.291211 61.2471439,182.351897 58.0543973,182.351897 C54.8616506,182.351897 49.8398329,198.291211 58.0543973,198.291211 Z" id="Path-3" fill="#FF8B62" transform="translate(58.054397, 190.321554) rotate(71.000000) translate(-58.054397, -190.321554) "></path>
                <path d="M64.5759504,210.732438 C72.7905148,210.732438 67.7686971,194.793124 64.5759504,194.793124 C61.3832038,194.793124 56.3613861,210.732438 64.5759504,210.732438 Z" id="Path-3" fill="#FF8B62" transform="translate(64.575950, 202.762781) rotate(58.000000) translate(-64.575950, -202.762781) "></path>
                <path d="M76.3341579,219.828842 C84.5487222,219.828842 79.5269046,203.889527 76.3341579,203.889527 C73.1414113,203.889527 68.1195936,219.828842 76.3341579,219.828842 Z" id="Path-3" fill="#FF8B62" transform="translate(76.334158, 211.859184) rotate(46.000000) translate(-76.334158, -211.859184) "></path>
                <path d="M89.7146845,226.608333 C97.9292489,226.608333 92.9074312,210.669019 89.7146845,210.669019 C86.5219379,210.669019 81.5001202,226.608333 89.7146845,226.608333 Z" id="Path-3" fill="#FF8B62" transform="translate(89.714685, 218.638676) rotate(33.000000) translate(-89.714685, -218.638676) "></path>
                <path d="M55.7745704,183.852414 C63.9891348,183.852414 58.9673171,167.913099 55.7745704,167.913099 C52.5818238,167.913099 47.5600061,183.852414 55.7745704,183.852414 Z" id="Path-3" fill="#FF8B62" transform="translate(55.774570, 175.882756) rotate(82.000000) translate(-55.774570, -175.882756) "></path>
                <path d="M50.8467131,91.504117 C59.0612774,91.504117 54.0394597,75.5648025 50.8467131,75.5648025 C47.6539664,75.5648025 42.6321487,91.504117 50.8467131,91.504117 Z" id="Path-3" fill="#FF8B62" transform="translate(50.846713, 83.534460) rotate(136.000000) translate(-50.846713, -83.534460) "></path>
                <path d="M42.1336414,102.522155 C50.3482057,102.522155 45.326388,86.5828406 42.1336414,86.5828406 C38.9408947,86.5828406 33.919077,102.522155 42.1336414,102.522155 Z" id="Path-3" fill="#FF8B62" transform="translate(42.133641, 94.552498) rotate(123.000000) translate(-42.133641, -94.552498) "></path>
                <path d="M38.6061571,116.963653 C46.8207214,116.963653 41.7989037,101.024338 38.6061571,101.024338 C35.4134104,101.024338 30.3915928,116.963653 38.6061571,116.963653 Z" id="Path-3" fill="#FF8B62" transform="translate(38.606157, 108.993996) rotate(111.000000) translate(-38.606157, -108.993996) "></path>
                <path d="M37.8551338,131.94484 C46.0696981,131.94484 41.0478804,116.005525 37.8551338,116.005525 C34.6623871,116.005525 29.6405694,131.94484 37.8551338,131.94484 Z" id="Path-3" fill="#FF8B62" transform="translate(37.855134, 123.975183) rotate(98.000000) translate(-37.855134, -123.975183) "></path>
                <path d="M63.1099218,83.5486035 C71.3244861,83.5486035 66.3026684,67.609289 63.1099218,67.609289 C59.9171751,67.609289 54.8953574,83.5486035 63.1099218,83.5486035 Z" id="Path-3" fill="#FF8B62" transform="translate(63.109922, 75.578946) rotate(147.000000) translate(-63.109922, -75.578946) "></path>
                <path d="M160.565867,53.4938596 C168.780431,53.4938596 163.758614,37.5545451 160.565867,37.5545451 C157.37312,37.5545451 152.351303,53.4938596 160.565867,53.4938596 Z" id="Path-3" fill="#FF8B62" transform="translate(160.565867, 45.524202) rotate(-153.000000) translate(-160.565867, -45.524202) "></path>
                <path d="M147.573001,48.1553005 C155.787565,48.1553005 150.765748,32.2159859 147.573001,32.2159859 C144.380254,32.2159859 139.358437,48.1553005 147.573001,48.1553005 Z" id="Path-3" fill="#FF8B62" transform="translate(147.573001, 40.185643) rotate(-166.000000) translate(-147.573001, -40.185643) "></path>
                <path d="M132.718636,48.7450812 C140.9332,48.7450812 135.911383,32.8057667 132.718636,32.8057667 C129.525889,32.8057667 124.504072,48.7450812 132.718636,48.7450812 Z" id="Path-3" fill="#FF8B62" transform="translate(132.718636, 40.775424) rotate(-178.000000) translate(-132.718636, -40.775424) "></path>
                <path d="M118.110785,52.152526 C126.325349,52.152526 121.303531,36.2132115 118.110785,36.2132115 C114.918038,36.2132115 109.89622,52.152526 118.110785,52.152526 Z" id="Path-3" fill="#FF8B62" transform="translate(118.110785, 44.182869) rotate(-191.000000) translate(-118.110785, -44.182869) "></path>
                <path d="M171.593396,63.0891758 C179.80796,63.0891758 174.786142,47.1498612 171.593396,47.1498612 C168.400649,47.1498612 163.378831,63.0891758 171.593396,63.0891758 Z" id="Path-3" fill="#FF8B62" transform="translate(171.593396, 55.119518) rotate(-142.000000) translate(-171.593396, -55.119518) "></path>
            </g>
        </g>
    </g>
</svg>